<?xml version="1.0" encoding="us-ascii" standalone="no"?><svg xmlns="http://www.w3.org/2000/svg" xmlns:xlink="http://www.w3.org/1999/xlink" contentStyleType="text/css" height="856.8px" preserveAspectRatio="none" style="width:425px;height:856px;background:#FFFFFF;" version="1.1" viewBox="0 0 425 856" width="425.7px" zoomAndPan="magnify"><defs/><g><!--class Adherent--><g id="elem_Adherent"><rect codeLine="3" fill="#F1F1F1" height="194.0309" id="Adherent" rx="2.25" ry="2.25" style="stroke:#181818;stroke-width:0.45;" width="155.7" x="121.5" y="6.3"/><ellipse cx="169.425" cy="20.7" fill="#ADD1B2" rx="9.9" ry="9.9" style="stroke:#181818;stroke-width:0.9;"/><path d="M171.9141,16.9875 Q172.0547,16.7906 172.2234,16.6922 Q172.3922,16.5938 172.5891,16.5938 Q172.9266,16.5938 173.1375,16.8328 Q173.3484,17.0578 173.3484,17.6063 L173.3484,18.9141 Q173.3484,19.4625 173.1375,19.7016 Q172.9266,19.9406 172.5891,19.9406 Q172.2797,19.9406 172.0969,19.7578 Q171.9141,19.5891 171.8156,19.125 Q171.7734,18.8016 171.6047,18.6328 Q171.3094,18.2953 170.7609,18.0984 Q170.2125,17.9016 169.65,17.9016 Q168.9609,17.9016 168.3844,18.1969 Q167.8219,18.4922 167.3719,19.1672 Q166.9359,19.8422 166.9359,20.7703 L166.9359,21.7547 Q166.9359,22.8656 167.7375,23.6109 Q168.5391,24.3422 169.9734,24.3422 Q170.8172,24.3422 171.4078,24.1172 Q171.7594,23.9766 172.1391,23.5828 Q172.3781,23.3438 172.5047,23.2734 Q172.6453,23.2031 172.8281,23.2031 Q173.1234,23.2031 173.3484,23.4422 Q173.5875,23.6672 173.5875,23.9766 Q173.5875,24.2859 173.2781,24.6516 Q172.8281,25.1719 172.1109,25.4672 Q171.1406,25.875 169.9734,25.875 Q168.6094,25.875 167.5266,25.3125 Q166.6406,24.8625 166.0219,23.9063 Q165.4031,22.9359 165.4031,21.7828 L165.4031,20.7422 Q165.4031,19.5469 165.9516,18.5203 Q166.5141,17.4797 167.4984,16.9313 Q168.4828,16.3688 169.5938,16.3688 Q170.2547,16.3688 170.8313,16.5234 Q171.4219,16.6641 171.9141,16.9875 Z " fill="#000000"/><text fill="#000000" font-family="sans-serif" font-size="12.6" lengthAdjust="spacing" textLength="52.2" x="187.875" y="25.9172">Adherent</text><line style="stroke:#181818;stroke-width:0.45;" x1="122.4" x2="276.3" y1="35.1" y2="35.1"/><rect fill="none" height="5.4" style="stroke:#C82930;stroke-width:0.9;" width="5.4" x="128.7" y="45.7295"/><text fill="#000000" font-family="sans-serif" font-size="12.6" lengthAdjust="spacing" textLength="132.3" x="139.5" y="52.2967">String numeroAdherent</text><rect fill="none" height="5.4" style="stroke:#C82930;stroke-width:0.9;" width="5.4" x="128.7" y="62.4885"/><text fill="#000000" font-family="sans-serif" font-size="12.6" lengthAdjust="spacing" textLength="80.1" x="139.5" y="69.0557">String prenom</text><rect fill="none" height="5.4" style="stroke:#C82930;stroke-width:0.9;" width="5.4" x="128.7" y="79.2475"/><text fill="#000000" font-family="sans-serif" font-size="12.6" lengthAdjust="spacing" textLength="61.2" x="139.5" y="85.8146">String nom</text><rect fill="none" height="5.4" style="stroke:#C82930;stroke-width:0.9;" width="5.4" x="128.7" y="96.0064"/><text fill="#000000" font-family="sans-serif" font-size="12.6" lengthAdjust="spacing" textLength="66.6" x="139.5" y="102.5736">String email</text><rect fill="none" height="5.4" style="stroke:#C82930;stroke-width:0.9;" width="5.4" x="128.7" y="112.7654"/><text fill="#000000" font-family="sans-serif" font-size="12.6" lengthAdjust="spacing" textLength="115.2" x="139.5" y="119.3326">String dateAdhesion</text><line style="stroke:#181818;stroke-width:0.45;" x1="122.4" x2="276.3" y1="126.0949" y2="126.0949"/><ellipse cx="131.4" cy="139.4244" fill="#84BE84" rx="2.7" ry="2.7" style="stroke:#038048;stroke-width:0.9;"/><text fill="#000000" font-family="sans-serif" font-size="12.6" lengthAdjust="spacing" textLength="98.1" x="139.5" y="143.2916">genererNumero()</text><ellipse cx="131.4" cy="156.1834" fill="#84BE84" rx="2.7" ry="2.7" style="stroke:#038048;stroke-width:0.9;"/><text fill="#000000" font-family="sans-serif" font-size="12.6" lengthAdjust="spacing" textLength="123.3" x="139.5" y="160.0506">renouvelerAdhesion()</text><ellipse cx="131.4" cy="172.9424" fill="#84BE84" rx="2.7" ry="2.7" style="stroke:#038048;stroke-width:0.9;"/><text fill="#000000" font-family="sans-serif" font-size="12.6" lengthAdjust="spacing" textLength="79.2" x="139.5" y="176.8096">getAdherent()</text><ellipse cx="131.4" cy="189.7014" fill="#84BE84" rx="2.7" ry="2.7" style="stroke:#038048;stroke-width:0.9;"/><text fill="#000000" font-family="sans-serif" font-size="12.6" lengthAdjust="spacing" textLength="113.4" x="139.5" y="193.5686">isAdhesionValable()</text></g><!--class Media--><g id="elem_Media"><rect codeLine="16" fill="#F1F1F1" height="126.9949" id="Media" rx="2.25" ry="2.25" style="stroke:#181818;stroke-width:0.45;" width="175.5" x="111.6" y="503.1"/><ellipse cx="177.975" cy="517.5" fill="#A9DCDF" rx="9.9" ry="9.9" style="stroke:#181818;stroke-width:0.9;"/><path d="M179.9438,519.0891 L176.2172,519.0891 L175.8375,520.0172 L176.2172,520.0172 Q176.7656,520.0172 177.0047,520.2281 Q177.2438,520.4391 177.2438,520.7906 Q177.2438,521.1281 177.0047,521.3391 Q176.7656,521.55 176.2172,521.55 L174.15,521.55 Q173.6016,521.55 173.3766,521.3391 Q173.1375,521.1281 173.1375,520.7766 Q173.1375,520.4391 173.3906,520.2281 Q173.6297,520.0031 174.1922,520.0172 L176.5969,514.0266 L175.5984,514.0266 Q175.05,514.0266 174.8109,513.8156 Q174.5719,513.6047 174.5719,513.2531 Q174.5719,512.9156 174.8109,512.7047 Q175.05,512.4938 175.5984,512.4938 L178.9031,512.4938 L181.9547,520.0172 Q182.4891,520.0172 182.6578,520.1438 Q183.0094,520.3828 183.0094,520.7906 Q183.0094,521.1281 182.7703,521.3391 Q182.5453,521.55 181.9969,521.55 L179.9297,521.55 Q179.3813,521.55 179.1422,521.3391 Q178.9031,521.1281 178.9031,520.7766 Q178.9031,520.4391 179.1422,520.2281 Q179.3813,520.0172 179.9297,520.0172 L180.3094,520.0172 L179.9438,519.0891 Z M179.2969,517.5563 L178.0734,514.5188 L176.8359,517.5563 L179.2969,517.5563 Z " fill="#000000"/><text fill="#000000" font-family="sans-serif" font-size="12.6" font-style="italic" lengthAdjust="spacing" textLength="35.1" x="196.425" y="522.7172">Media</text><line style="stroke:#181818;stroke-width:0.45;" x1="112.5" x2="286.2" y1="531.9" y2="531.9"/><polygon fill="none" points="121.5,540.7295,125.1,544.3295,121.5,547.9295,117.9,544.3295" style="stroke:#B38D22;stroke-width:0.9;"/><text fill="#000000" font-family="sans-serif" font-size="12.6" lengthAdjust="spacing" textLength="95.4" x="129.6" y="549.0967">String nomMedia</text><polygon fill="none" points="121.5,557.4885,125.1,561.0885,121.5,564.6885,117.9,561.0885" style="stroke:#B38D22;stroke-width:0.9;"/><text fill="#000000" font-family="sans-serif" font-size="12.6" lengthAdjust="spacing" textLength="152.1" x="129.6" y="565.8557">String dureeEmpruntMedia</text><line style="stroke:#181818;stroke-width:0.45;" x1="112.5" x2="286.2" y1="572.618" y2="572.618"/><ellipse cx="121.5" cy="585.9475" fill="#84BE84" rx="2.7" ry="2.7" style="stroke:#038048;stroke-width:0.9;"/><text fill="#000000" font-family="sans-serif" font-size="12.6" lengthAdjust="spacing" textLength="54.9" x="129.6" y="589.8146">getLivre()</text><ellipse cx="121.5" cy="602.7064" fill="#84BE84" rx="2.7" ry="2.7" style="stroke:#038048;stroke-width:0.9;"/><text fill="#000000" font-family="sans-serif" font-size="12.6" lengthAdjust="spacing" textLength="63" x="129.6" y="606.5736">getBluray()</text><ellipse cx="121.5" cy="619.4654" fill="#84BE84" rx="2.7" ry="2.7" style="stroke:#038048;stroke-width:0.9;"/><text fill="#000000" font-family="sans-serif" font-size="12.6" lengthAdjust="spacing" textLength="81" x="129.6" y="623.3326">getMagazine()</text></g><!--class Livre--><g id="elem_Livre"><rect codeLine="25" fill="#F1F1F1" height="110.2359" id="Livre" rx="2.25" ry="2.25" style="stroke:#181818;stroke-width:0.45;" width="107.1" x="6.3" y="740.7"/><ellipse cx="42.48" cy="755.1" fill="#ADD1B2" rx="9.9" ry="9.9" style="stroke:#181818;stroke-width:0.9;"/><path d="M44.9691,751.3875 Q45.1097,751.1906 45.2784,751.0922 Q45.4472,750.9938 45.6441,750.9938 Q45.9816,750.9938 46.1925,751.2328 Q46.4034,751.4578 46.4034,752.0063 L46.4034,753.3141 Q46.4034,753.8625 46.1925,754.1016 Q45.9816,754.3406 45.6441,754.3406 Q45.3347,754.3406 45.1519,754.1578 Q44.9691,753.9891 44.8706,753.525 Q44.8284,753.2016 44.6597,753.0328 Q44.3644,752.6953 43.8159,752.4984 Q43.2675,752.3016 42.705,752.3016 Q42.0159,752.3016 41.4394,752.5969 Q40.8769,752.8922 40.4269,753.5672 Q39.9909,754.2422 39.9909,755.1703 L39.9909,756.1547 Q39.9909,757.2656 40.7925,758.0109 Q41.5941,758.7422 43.0284,758.7422 Q43.8722,758.7422 44.4628,758.5172 Q44.8144,758.3766 45.1941,757.9828 Q45.4331,757.7438 45.5597,757.6734 Q45.7003,757.6031 45.8831,757.6031 Q46.1784,757.6031 46.4034,757.8422 Q46.6425,758.0672 46.6425,758.3766 Q46.6425,758.6859 46.3331,759.0516 Q45.8831,759.5719 45.1659,759.8672 Q44.1956,760.275 43.0284,760.275 Q41.6644,760.275 40.5816,759.7125 Q39.6956,759.2625 39.0769,758.3063 Q38.4581,757.3359 38.4581,756.1828 L38.4581,755.1422 Q38.4581,753.9469 39.0066,752.9203 Q39.5691,751.8797 40.5534,751.3313 Q41.5378,750.7688 42.6488,750.7688 Q43.3097,750.7688 43.8863,750.9234 Q44.4769,751.0641 44.9691,751.3875 Z " fill="#000000"/><text fill="#000000" font-family="sans-serif" font-size="12.6" lengthAdjust="spacing" textLength="27.9" x="60.12" y="760.3172">Livre</text><line style="stroke:#181818;stroke-width:0.45;" x1="7.2" x2="112.5" y1="769.5" y2="769.5"/><text fill="#000000" font-family="sans-serif" font-size="12.6" lengthAdjust="spacing" textLength="60.3" x="11.7" y="786.6967">String isbn</text><text fill="#000000" font-family="sans-serif" font-size="12.6" lengthAdjust="spacing" textLength="58.5" x="11.7" y="803.4557">String titre</text><text fill="#000000" font-family="sans-serif" font-size="12.6" lengthAdjust="spacing" textLength="73.8" x="11.7" y="820.2146">String auteur</text><text fill="#000000" font-family="sans-serif" font-size="12.6" lengthAdjust="spacing" textLength="96.3" x="11.7" y="836.9736">Int nombrePages</text><line style="stroke:#181818;stroke-width:0.45;" x1="7.2" x2="112.5" y1="843.7359" y2="843.7359"/></g><!--class Bluray--><g id="elem_Bluray"><rect codeLine="32" fill="#F1F1F1" height="110.2359" id="Bluray" rx="2.25" ry="2.25" style="stroke:#181818;stroke-width:0.45;" width="108" x="145.35" y="740.7"/><ellipse cx="178.29" cy="755.1" fill="#ADD1B2" rx="9.9" ry="9.9" style="stroke:#181818;stroke-width:0.9;"/><path d="M180.7791,751.3875 Q180.9197,751.1906 181.0884,751.0922 Q181.2572,750.9938 181.4541,750.9938 Q181.7916,750.9938 182.0025,751.2328 Q182.2134,751.4578 182.2134,752.0063 L182.2134,753.3141 Q182.2134,753.8625 182.0025,754.1016 Q181.7916,754.3406 181.4541,754.3406 Q181.1447,754.3406 180.9619,754.1578 Q180.7791,753.9891 180.6806,753.525 Q180.6384,753.2016 180.4697,753.0328 Q180.1744,752.6953 179.6259,752.4984 Q179.0775,752.3016 178.515,752.3016 Q177.8259,752.3016 177.2494,752.5969 Q176.6869,752.8922 176.2369,753.5672 Q175.8009,754.2422 175.8009,755.1703 L175.8009,756.1547 Q175.8009,757.2656 176.6025,758.0109 Q177.4041,758.7422 178.8384,758.7422 Q179.6822,758.7422 180.2728,758.5172 Q180.6244,758.3766 181.0041,757.9828 Q181.2431,757.7438 181.3697,757.6734 Q181.5103,757.6031 181.6931,757.6031 Q181.9884,757.6031 182.2134,757.8422 Q182.4525,758.0672 182.4525,758.3766 Q182.4525,758.6859 182.1431,759.0516 Q181.6931,759.5719 180.9759,759.8672 Q180.0056,760.275 178.8384,760.275 Q177.4744,760.275 176.3916,759.7125 Q175.5056,759.2625 174.8869,758.3063 Q174.2681,757.3359 174.2681,756.1828 L174.2681,755.1422 Q174.2681,753.9469 174.8166,752.9203 Q175.3791,751.8797 176.3634,751.3313 Q177.3478,750.7688 178.4588,750.7688 Q179.1197,750.7688 179.6963,750.9234 Q180.2869,751.0641 180.7791,751.3875 Z " fill="#000000"/><text fill="#000000" font-family="sans-serif" font-size="12.6" lengthAdjust="spacing" textLength="36" x="195.21" y="760.3172">Bluray</text><line style="stroke:#181818;stroke-width:0.45;" x1="146.25" x2="252.45" y1="769.5" y2="769.5"/><text fill="#000000" font-family="sans-serif" font-size="12.6" lengthAdjust="spacing" textLength="58.5" x="150.75" y="786.6967">String titre</text><text fill="#000000" font-family="sans-serif" font-size="12.6" lengthAdjust="spacing" textLength="97.2" x="150.75" y="803.4557">String realisateur</text><text fill="#000000" font-family="sans-serif" font-size="12.6" lengthAdjust="spacing" textLength="70.2" x="150.75" y="820.2146">String duree</text><text fill="#000000" font-family="sans-serif" font-size="12.6" lengthAdjust="spacing" textLength="86.4" x="150.75" y="836.9736">Int anneeSortie</text><line style="stroke:#181818;stroke-width:0.45;" x1="146.25" x2="252.45" y1="843.7359" y2="843.7359"/></g><!--class Magazine--><g id="elem_Magazine"><rect codeLine="39" fill="#F1F1F1" height="93.477" id="Magazine" rx="2.25" ry="2.25" style="stroke:#181818;stroke-width:0.45;" width="135" x="284.85" y="748.8"/><ellipse cx="321.84" cy="763.2" fill="#ADD1B2" rx="9.9" ry="9.9" style="stroke:#181818;stroke-width:0.9;"/><path d="M324.3291,759.4875 Q324.4697,759.2906 324.6384,759.1922 Q324.8072,759.0938 325.0041,759.0938 Q325.3416,759.0938 325.5525,759.3328 Q325.7634,759.5578 325.7634,760.1063 L325.7634,761.4141 Q325.7634,761.9625 325.5525,762.2016 Q325.3416,762.4406 325.0041,762.4406 Q324.6947,762.4406 324.5119,762.2578 Q324.3291,762.0891 324.2306,761.625 Q324.1884,761.3016 324.0197,761.1328 Q323.7244,760.7953 323.1759,760.5984 Q322.6275,760.4016 322.065,760.4016 Q321.3759,760.4016 320.7994,760.6969 Q320.2369,760.9922 319.7869,761.6672 Q319.3509,762.3422 319.3509,763.2703 L319.3509,764.2547 Q319.3509,765.3656 320.1525,766.1109 Q320.9541,766.8422 322.3884,766.8422 Q323.2322,766.8422 323.8228,766.6172 Q324.1744,766.4766 324.5541,766.0828 Q324.7931,765.8438 324.9197,765.7734 Q325.0603,765.7031 325.2431,765.7031 Q325.5384,765.7031 325.7634,765.9422 Q326.0025,766.1672 326.0025,766.4766 Q326.0025,766.7859 325.6931,767.1516 Q325.2431,767.6719 324.5259,767.9672 Q323.5556,768.375 322.3884,768.375 Q321.0244,768.375 319.9416,767.8125 Q319.0556,767.3625 318.4369,766.4063 Q317.8181,765.4359 317.8181,764.2828 L317.8181,763.2422 Q317.8181,762.0469 318.3666,761.0203 Q318.9291,759.9797 319.9134,759.4313 Q320.8978,758.8688 322.0088,758.8688 Q322.6697,758.8688 323.2463,759.0234 Q323.8369,759.1641 324.3291,759.4875 Z " fill="#000000"/><text fill="#000000" font-family="sans-serif" font-size="12.6" lengthAdjust="spacing" textLength="54" x="339.66" y="768.4172">Magazine</text><line style="stroke:#181818;stroke-width:0.45;" x1="285.75" x2="418.95" y1="777.6" y2="777.6"/><text fill="#000000" font-family="sans-serif" font-size="12.6" lengthAdjust="spacing" textLength="58.5" x="290.25" y="794.7967">String titre</text><text fill="#000000" font-family="sans-serif" font-size="12.6" lengthAdjust="spacing" textLength="60.3" x="290.25" y="811.5557">Int numero</text><text fill="#000000" font-family="sans-serif" font-size="12.6" lengthAdjust="spacing" textLength="124.2" x="290.25" y="828.3146">String datePublication</text><line style="stroke:#181818;stroke-width:0.45;" x1="285.75" x2="418.95" y1="835.077" y2="835.077"/></g><!--class Emprunt--><g id="elem_Emprunt"><rect codeLine="45" fill="#F1F1F1" height="160.5129" id="Emprunt" rx="2.25" ry="2.25" style="stroke:#181818;stroke-width:0.45;" width="185.4" x="106.65" y="271.8"/><ellipse cx="171.675" cy="286.2" fill="#ADD1B2" rx="9.9" ry="9.9" style="stroke:#181818;stroke-width:0.9;"/><path d="M174.1641,282.4875 Q174.3047,282.2906 174.4734,282.1922 Q174.6422,282.0938 174.8391,282.0938 Q175.1766,282.0938 175.3875,282.3328 Q175.5984,282.5578 175.5984,283.1063 L175.5984,284.4141 Q175.5984,284.9625 175.3875,285.2016 Q175.1766,285.4406 174.8391,285.4406 Q174.5297,285.4406 174.3469,285.2578 Q174.1641,285.0891 174.0656,284.625 Q174.0234,284.3016 173.8547,284.1328 Q173.5594,283.7953 173.0109,283.5984 Q172.4625,283.4016 171.9,283.4016 Q171.2109,283.4016 170.6344,283.6969 Q170.0719,283.9922 169.6219,284.6672 Q169.1859,285.3422 169.1859,286.2703 L169.1859,287.2547 Q169.1859,288.3656 169.9875,289.1109 Q170.7891,289.8422 172.2234,289.8422 Q173.0672,289.8422 173.6578,289.6172 Q174.0094,289.4766 174.3891,289.0828 Q174.6281,288.8438 174.7547,288.7734 Q174.8953,288.7031 175.0781,288.7031 Q175.3734,288.7031 175.5984,288.9422 Q175.8375,289.1672 175.8375,289.4766 Q175.8375,289.7859 175.5281,290.1516 Q175.0781,290.6719 174.3609,290.9672 Q173.3906,291.375 172.2234,291.375 Q170.8594,291.375 169.7766,290.8125 Q168.8906,290.3625 168.2719,289.4063 Q167.6531,288.4359 167.6531,287.2828 L167.6531,286.2422 Q167.6531,285.0469 168.2016,284.0203 Q168.7641,282.9797 169.7484,282.4313 Q170.7328,281.8688 171.8438,281.8688 Q172.5047,281.8688 173.0813,282.0234 Q173.6719,282.1641 174.1641,282.4875 Z " fill="#000000"/><text fill="#000000" font-family="sans-serif" font-size="12.6" lengthAdjust="spacing" textLength="47.7" x="190.125" y="291.4172">Emprunt</text><line style="stroke:#181818;stroke-width:0.45;" x1="107.55" x2="291.15" y1="300.6" y2="300.6"/><rect fill="none" height="5.4" style="stroke:#C82930;stroke-width:0.9;" width="5.4" x="113.85" y="311.2295"/><text fill="#000000" font-family="sans-serif" font-size="12.6" lengthAdjust="spacing" textLength="109.8" x="124.65" y="317.7967">String dateEmprunt</text><rect fill="none" height="5.4" style="stroke:#C82930;stroke-width:0.9;" width="5.4" x="113.85" y="327.9885"/><text fill="#000000" font-family="sans-serif" font-size="12.6" lengthAdjust="spacing" textLength="100.8" x="124.65" y="334.5557">String dateRetour</text><rect fill="none" height="5.4" style="stroke:#C82930;stroke-width:0.9;" width="5.4" x="113.85" y="344.7475"/><text fill="#000000" font-family="sans-serif" font-size="12.6" lengthAdjust="spacing" textLength="117.9" x="124.65" y="351.3146">String dureeEmprunt</text><line style="stroke:#181818;stroke-width:0.45;" x1="107.55" x2="291.15" y1="358.077" y2="358.077"/><ellipse cx="116.55" cy="371.4064" fill="#84BE84" rx="2.7" ry="2.7" style="stroke:#038048;stroke-width:0.9;"/><text fill="#000000" font-family="sans-serif" font-size="12.6" lengthAdjust="spacing" textLength="74.7" x="124.65" y="375.2736">getEmprunt()</text><ellipse cx="116.55" cy="388.1654" fill="#84BE84" rx="2.7" ry="2.7" style="stroke:#038048;stroke-width:0.9;"/><text fill="#000000" font-family="sans-serif" font-size="12.6" lengthAdjust="spacing" textLength="162" x="124.65" y="392.0326">isEmpruntInProgress() : bool</text><ellipse cx="116.55" cy="404.9244" fill="#84BE84" rx="2.7" ry="2.7" style="stroke:#038048;stroke-width:0.9;"/><text fill="#000000" font-family="sans-serif" font-size="12.6" lengthAdjust="spacing" textLength="144" x="124.65" y="408.7916">isEmpruntOnAlert() : bool</text><ellipse cx="116.55" cy="421.6834" fill="#84BE84" rx="2.7" ry="2.7" style="stroke:#038048;stroke-width:0.9;"/><text fill="#000000" font-family="sans-serif" font-size="12.6" lengthAdjust="spacing" textLength="153.9" x="124.65" y="425.5506">isEmpruntOutdated() : bool</text></g><!--reverse link Media to Livre--><g id="link_Media_Livre"><path codeLine="57" d="M151.353,645.633 C132.12,676.971 110.439,712.296 93.006,740.691 " fill="none" id="Media-backto-Livre" style="stroke:#181818;stroke-width:0.9;"/><polygon fill="none" points="146.079,642.195,160.866,630.153,156.816,648.783,146.079,642.195" style="stroke:#181818;stroke-width:0.9;"/></g><!--reverse link Media to Bluray--><g id="link_Media_Bluray"><path codeLine="58" d="M199.35,648.216 C199.35,678.897 199.35,713.07 199.35,740.691 " fill="none" id="Media-backto-Bluray" style="stroke:#181818;stroke-width:0.9;"/><polygon fill="none" points="193.05,648.153,199.35,630.153,205.65,648.153,193.05,648.153" style="stroke:#181818;stroke-width:0.9;"/></g><!--reverse link Media to Magazine--><g id="link_Media_Magazine"><path codeLine="59" d="M251.631,645.102 C274.86,679.608 301.428,719.064 321.435,748.782 " fill="none" id="Media-backto-Magazine" style="stroke:#181818;stroke-width:0.9;"/><polygon fill="none" points="246.393,648.594,241.56,630.153,256.842,641.565,246.393,648.594" style="stroke:#181818;stroke-width:0.9;"/></g><!--link Adherent to Emprunt--><g id="link_Adherent_Emprunt"><path codeLine="61" d="M199.35,200.799 C199.35,222.75 199.35,245.889 199.35,267.255 " fill="none" id="Adherent-to-Emprunt" style="stroke:#181818;stroke-width:0.9;"/><polygon fill="#181818" points="199.35,271.782,202.95,263.682,199.35,267.282,195.75,263.682,199.35,271.782" style="stroke:#181818;stroke-width:0.9;"/><text fill="#000000" font-family="sans-serif" font-size="11.7" lengthAdjust="spacing" textLength="34.2" x="200.25" y="241.2255">r&#233;alise</text></g><!--link Emprunt to Media--><g id="link_Emprunt_Media"><path codeLine="62" d="M199.35,432.054 C199.35,453.816 199.35,477.198 199.35,498.222 " fill="none" id="Emprunt-to-Media" style="stroke:#181818;stroke-width:0.9;"/><polygon fill="#181818" points="199.35,502.947,202.95,494.847,199.35,498.447,195.75,494.847,199.35,502.947" style="stroke:#181818;stroke-width:0.9;"/><text fill="#000000" font-family="sans-serif" font-size="11.7" lengthAdjust="spacing" textLength="70.2" x="200.25" y="472.5255">qui comprend</text></g><!--SRC=[RLFBQiCm4BphAmGzj26ukOTIIA67GX-XWTxNyU88PCbThGfzVL2_epzMFIpRARbvPbSpgrdv_C3Sk_LgrMimx3jzkRVTQg_1kQfHq19qGYGeDyq12GtBJr7jc9HffV4TaYs5aUu3ijtKDVl63fGUKGECyRHJrWYnRD448NfCgXSBiOmw_WqrKkcAR8jSB2DKhXHVG4EjCP3VGa3jc63FCa__WE4wOVIpQQX4ZKJZ2V6swyaRpfNaTA_U20VN6-q9tWVm02ryA3EuPPFK74m6IULgKxvPCM41u1azYRiGPfYZ9jn2YsxIoKQJqD5XGj3AGLAOpvxam1Z4dILMECcLKVyB9lyKjfWjPEjhhVR0SIUZn13CRFUnTM2Fk6Ta6oQhJiIQ4nr0Njq0xioMR4letCL2hcLjhPvLdymcF04-MV8SJPkf5cVEoxxwggegx-I8oUaUKIKX8SPNNbNNuwtNadv_Okee2XNBMM4jNxsIuRU9pxuHVm00]--></g></svg>